REM DIRINDEX 1\2,1\3,1\4,1\5,1\6,1\7,1\8
REM DIRNAME folder01,folder02,folder03,folder04,folder05,folder06,folder07,folder08
TITLE ""
FILE "42_Ch9_EatingOut_Shopping_Behavier.mp3" MP3
  TRACK 01 AUDIO
    TITLE "0:"
    INDEX 01 00:00:00
  TRACK 02 AUDIO
    TITLE "8:cjc152_2260"
    INDEX 01 00:00:31
  TRACK 03 AUDIO
    TITLE "0:"
    INDEX 01 00:04:11
  TRACK 04 AUDIO
    TITLE "8:cjc152_2261"
    INDEX 01 00:04:70
  TRACK 05 AUDIO
    TITLE "0:"
    INDEX 01 00:06:31
  TRACK 06 AUDIO
    TITLE "3:cjc152_2262"
    INDEX 01 00:07:23
  TRACK 07 AUDIO
    TITLE "0:"
    INDEX 01 00:10:18
  TRACK 08 AUDIO
    TITLE "3:cjc152_2263"
    INDEX 01 00:11:15
  TRACK 09 AUDIO
    TITLE "0:"
    INDEX 01 00:15:15
  TRACK 10 AUDIO
    TITLE "3:cjc152_2264"
    INDEX 01 00:17:08
  TRACK 11 AUDIO
    TITLE "0:"
    INDEX 01 00:19:63
  TRACK 12 AUDIO
    TITLE "3:cjc152_2265"
    INDEX 01 00:20:57
  TRACK 13 AUDIO
    TITLE "0:"
    INDEX 01 00:23:48
  TRACK 14 AUDIO
    TITLE "3:cjc152_2266"
    INDEX 01 00:25:41
  TRACK 15 AUDIO
    TITLE "0:"
    INDEX 01 00:27:28
  TRACK 16 AUDIO
    TITLE "3:cjc152_2267"
    INDEX 01 00:28:19
  TRACK 17 AUDIO
    TITLE "0:"
    INDEX 01 00:30:42
  TRACK 18 AUDIO
    TITLE "3:cjc152_2268"
    INDEX 01 00:32:35
  TRACK 19 AUDIO
    TITLE "0:"
    INDEX 01 00:35:15
  TRACK 20 AUDIO
    TITLE "3:cjc152_2269"
    INDEX 01 00:36:03
  TRACK 21 AUDIO
    TITLE "0:"
    INDEX 01 00:38:08
  TRACK 22 AUDIO
    TITLE "3:cjc152_2270"
    INDEX 01 00:40:01
  TRACK 23 AUDIO
    TITLE "0:"
    INDEX 01 00:42:61
  TRACK 24 AUDIO
    TITLE "3:cjc152_2271"
    INDEX 01 00:43:54
  TRACK 25 AUDIO
    TITLE "0:"
    INDEX 01 00:47:17
  TRACK 26 AUDIO
    TITLE "3:cjc152_2272"
    INDEX 01 00:49:10
  TRACK 27 AUDIO
    TITLE "0:"
    INDEX 01 00:51:01
  TRACK 28 AUDIO
    TITLE "3:cjc152_2273"
    INDEX 01 00:51:67
  TRACK 29 AUDIO
    TITLE "0:"
    INDEX 01 00:54:05
  TRACK 30 AUDIO
    TITLE "3:cjc152_2274"
    INDEX 01 00:55:73
  TRACK 31 AUDIO
    TITLE "0:"
    INDEX 01 00:57:41
  TRACK 32 AUDIO
    TITLE "3:cjc152_2275"
    INDEX 01 00:58:34
  TRACK 33 AUDIO
    TITLE "0:"
    INDEX 01 00:59:71
  TRACK 34 AUDIO
    TITLE "3:cjc152_2276"
    INDEX 01 01:01:66
  TRACK 35 AUDIO
    TITLE "0:"
    INDEX 01 01:04:41
  TRACK 36 AUDIO
    TITLE "3:cjc152_2277"
    INDEX 01 01:05:34
  TRACK 37 AUDIO
    TITLE "0:"
    INDEX 01 01:08:38
  TRACK 38 AUDIO
    TITLE "3:cjc152_2278"
    INDEX 01 01:10:53
  TRACK 39 AUDIO
    TITLE "0:"
    INDEX 01 01:12:68
  TRACK 40 AUDIO
    TITLE "3:cjc152_2279"
    INDEX 01 01:13:57
  TRACK 41 AUDIO
    TITLE "0:"
    INDEX 01 01:16:67
  TRACK 42 AUDIO
    TITLE "3:cjc152_2280"
    INDEX 01 01:18:58
  TRACK 43 AUDIO
    TITLE "0:"
    INDEX 01 01:20:42
  TRACK 44 AUDIO
    TITLE "3:cjc152_2281"
    INDEX 01 01:21:35
  TRACK 45 AUDIO
    TITLE "0:"
    INDEX 01 01:23:46
  TRACK 46 AUDIO
    TITLE "3:cjc152_2282"
    INDEX 01 01:25:39
  TRACK 47 AUDIO
    TITLE "0:"
    INDEX 01 01:28:63
  TRACK 48 AUDIO
    TITLE "3:cjc152_2283"
    INDEX 01 01:29:54
  TRACK 49 AUDIO
    TITLE "0:"
    INDEX 01 01:33:07
  TRACK 50 AUDIO
    TITLE "3:cjc152_2284"
    INDEX 01 01:35:00
  TRACK 51 AUDIO
    TITLE "0:"
    INDEX 01 01:36:72
  TRACK 52 AUDIO
    TITLE "3:cjc152_2285"
    INDEX 01 01:37:68
  TRACK 53 AUDIO
    TITLE "0:"
    INDEX 01 01:39:41
  TRACK 54 AUDIO
    TITLE "3:cjc152_2286"
    INDEX 01 01:41:32
  TRACK 55 AUDIO
    TITLE "0:"
    INDEX 01 01:43:02
  TRACK 56 AUDIO
    TITLE "3:cjc152_2287"
    INDEX 01 01:43:64
  TRACK 57 AUDIO
    TITLE "0:"
    INDEX 01 01:45:32
  TRACK 58 AUDIO
    TITLE "3:cjc152_2288"
    INDEX 01 01:47:23
  TRACK 59 AUDIO
    TITLE "0:"
    INDEX 01 01:49:32
  TRACK 60 AUDIO
    TITLE "3:cjc152_2289"
    INDEX 01 01:50:23
  TRACK 61 AUDIO
    TITLE "0:"
    INDEX 01 01:52:65
  TRACK 62 AUDIO
    TITLE "3:cjc152_2290"
    INDEX 01 01:54:56
  TRACK 63 AUDIO
    TITLE "0:"
    INDEX 01 01:56:14
  TRACK 64 AUDIO
    TITLE "3:cjc152_2291"
    INDEX 01 01:57:09
  TRACK 65 AUDIO
    TITLE "0:"
    INDEX 01 01:58:50
  TRACK 66 AUDIO
    TITLE "3:cjc152_2292"
    INDEX 01 02:00:43
  TRACK 67 AUDIO
    TITLE "0:"
    INDEX 01 02:02:71
  TRACK 68 AUDIO
    TITLE "3:cjc152_2293"
    INDEX 01 02:03:61
  TRACK 69 AUDIO
    TITLE "0:"
    INDEX 01 02:06:20
  TRACK 70 AUDIO
    TITLE "3:cjc152_2294"
    INDEX 01 02:08:13
  TRACK 71 AUDIO
    TITLE "0:"
    INDEX 01 02:12:01
  TRACK 72 AUDIO
    TITLE "3:cjc152_2295"
    INDEX 01 02:12:70
  TRACK 73 AUDIO
    TITLE "0:"
    INDEX 01 02:17:12
  TRACK 74 AUDIO
    TITLE "3:cjc152_2296"
    INDEX 01 02:19:03
  TRACK 75 AUDIO
    TITLE "0:"
    INDEX 01 02:20:48
  TRACK 76 AUDIO
    TITLE "3:cjc152_2297"
    INDEX 01 02:21:41
  TRACK 77 AUDIO
    TITLE "0:"
    INDEX 01 02:24:14
  TRACK 78 AUDIO
    TITLE "3:cjc152_2298"
    INDEX 01 02:26:07
  TRACK 79 AUDIO
    TITLE "0:"
    INDEX 01 02:27:63
  TRACK 80 AUDIO
    TITLE "3:cjc152_2299"
    INDEX 01 02:28:57
  TRACK 81 AUDIO
    TITLE "0:"
    INDEX 01 02:30:17
  TRACK 82 AUDIO
    TITLE "3:cjc152_2300"
    INDEX 01 02:32:12
  TRACK 83 AUDIO
    TITLE "0:"
    INDEX 01 02:33:60
  TRACK 84 AUDIO
    TITLE "3:cjc152_2301"
    INDEX 01 02:34:54
  TRACK 85 AUDIO
    TITLE "0:"
    INDEX 01 02:36:27
  TRACK 86 AUDIO
    TITLE "3:cjc152_2302"
    INDEX 01 02:38:22
  TRACK 87 AUDIO
    TITLE "0:"
    INDEX 01 02:39:63
  TRACK 88 AUDIO
    TITLE "3:cjc152_2303"
    INDEX 01 02:40:56
  TRACK 89 AUDIO
    TITLE "0:"
    INDEX 01 02:42:67
  TRACK 90 AUDIO
    TITLE "3:cjc152_2304"
    INDEX 01 02:44:58
  TRACK 91 AUDIO
    TITLE "0:"
    INDEX 01 02:46:59
  TRACK 92 AUDIO
    TITLE "3:cjc152_2305"
    INDEX 01 02:47:51
  TRACK 93 AUDIO
    TITLE "0:"
    INDEX 01 02:50:25
  TRACK 94 AUDIO
    TITLE "3:cjc152_2306"
    INDEX 01 02:52:42
  TRACK 95 AUDIO
    TITLE "0:"
    INDEX 01 02:57:18
  TRACK 96 AUDIO
    TITLE "3:cjc152_2307"
    INDEX 01 02:58:07
  TRACK 97 AUDIO
    TITLE "0:"
    INDEX 01 03:03:10
  TRACK 98 AUDIO
    TITLE "3:cjc152_2308"
    INDEX 01 03:05:03
  TRACK 99 AUDIO
    TITLE "0:"
    INDEX 01 03:06:05
  TRACK 100 AUDIO
    TITLE "3:cjc152_2309"
    INDEX 01 03:06:71
  TRACK 101 AUDIO
    TITLE "0:"
    INDEX 01 03:08:47
  TRACK 102 AUDIO
    TITLE "3:cjc152_2310"
    INDEX 01 03:10:40
  TRACK 103 AUDIO
    TITLE "0:"
    INDEX 01 03:12:00
  TRACK 104 AUDIO
    TITLE "3:cjc152_2311"
    INDEX 01 03:12:68
  TRACK 105 AUDIO
    TITLE "0:"
    INDEX 01 03:14:32
  TRACK 106 AUDIO
    TITLE "3:cjc152_2312"
    INDEX 01 03:16:25
  TRACK 107 AUDIO
    TITLE "0:"
    INDEX 01 03:17:56
  TRACK 108 AUDIO
    TITLE "3:cjc152_2313"
    INDEX 01 03:18:47
  TRACK 109 AUDIO
    TITLE "0:"
    INDEX 01 03:20:15
  TRACK 110 AUDIO
    TITLE "3:cjc152_2314"
    INDEX 01 03:22:08
  TRACK 111 AUDIO
    TITLE "0:"
    INDEX 01 03:23:39
  TRACK 112 AUDIO
    TITLE "3:cjc152_2315"
    INDEX 01 03:24:30
  TRACK 113 AUDIO
    TITLE "0:"
    INDEX 01 03:26:13
  TRACK 114 AUDIO
    TITLE "3:cjc152_2316"
    INDEX 01 03:28:06
  TRACK 115 AUDIO
    TITLE "0:"
    INDEX 01 03:30:03
  TRACK 116 AUDIO
    TITLE "3:cjc152_2317"
    INDEX 01 03:30:72
  TRACK 117 AUDIO
    TITLE "0:"
    INDEX 01 03:32:71
  TRACK 118 AUDIO
    TITLE "3:cjc152_2318"
    INDEX 01 03:34:74
  TRACK 119 AUDIO
    TITLE "0:"
    INDEX 01 03:36:74
  TRACK 120 AUDIO
    TITLE "3:cjc152_2319"
    INDEX 01 03:37:66
  TRACK 121 AUDIO
    TITLE "0:"
    INDEX 01 03:41:60
  TRACK 122 AUDIO
    TITLE "3:cjc152_2320"
    INDEX 01 03:43:51
  TRACK 123 AUDIO
    TITLE "0:"
    INDEX 01 03:45:73
  TRACK 124 AUDIO
    TITLE "3:cjc152_2321"
    INDEX 01 03:46:67
  TRACK 125 AUDIO
    TITLE "0:"
    INDEX 01 03:49:42
  TRACK 126 AUDIO
    TITLE "3:cjc152_2322"
    INDEX 01 03:51:35
  TRACK 127 AUDIO
    TITLE "0:"
    INDEX 01 03:54:63
  TRACK 128 AUDIO
    TITLE "3:cjc152_2323"
    INDEX 01 03:55:54
  TRACK 129 AUDIO
    TITLE "0:"
    INDEX 01 04:01:10
  TRACK 130 AUDIO
    TITLE "3:cjc152_2324"
    INDEX 01 04:03:03
  TRACK 131 AUDIO
    TITLE "0:"
    INDEX 01 04:04:36
  TRACK 132 AUDIO
    TITLE "3:cjc152_2325"
    INDEX 01 04:05:29
  TRACK 133 AUDIO
    TITLE "0:"
    INDEX 01 04:07:01
  TRACK 134 AUDIO
    TITLE "3:cjc152_2326"
    INDEX 01 04:08:67
  TRACK 135 AUDIO
    TITLE "0:"
    INDEX 01 04:10:42
  TRACK 136 AUDIO
    TITLE "3:cjc152_2327"
    INDEX 01 04:11:36
  TRACK 137 AUDIO
    TITLE "0:"
    INDEX 01 04:12:59
  TRACK 138 AUDIO
    TITLE "3:cjc152_2328"
    INDEX 01 04:14:52
  TRACK 139 AUDIO
    TITLE "0:"
    INDEX 01 04:17:34
  TRACK 140 AUDIO
    TITLE "3:cjc152_2329"
    INDEX 01 04:18:28
  TRACK 141 AUDIO
    TITLE "0:"
    INDEX 01 04:21:03
  TRACK 142 AUDIO
    TITLE "3:cjc152_2330"
    INDEX 01 04:23:15
  TRACK 143 AUDIO
    TITLE "0:"
    INDEX 01 04:25:44
  TRACK 144 AUDIO
    TITLE "3:cjc152_2331"
    INDEX 01 04:26:37
  TRACK 145 AUDIO
    TITLE "0:"
    INDEX 01 04:28:40
  TRACK 146 AUDIO
    TITLE "3:cjc152_2332"
    INDEX 01 04:30:35
  TRACK 147 AUDIO
    TITLE "0:"
    INDEX 01 04:32:61
  TRACK 148 AUDIO
    TITLE "3:cjc152_2333"
    INDEX 01 04:33:55
  TRACK 149 AUDIO
    TITLE "0:"
    INDEX 01 04:36:22
  TRACK 150 AUDIO
    TITLE "3:cjc152_2334"
    INDEX 01 04:38:13
  TRACK 151 AUDIO
    TITLE "0:"
    INDEX 01 04:40:55
  TRACK 152 AUDIO
    TITLE "3:cjc152_2335"
    INDEX 01 04:41:46
  TRACK 153 AUDIO
    TITLE "0:"
    INDEX 01 04:44:15
  TRACK 154 AUDIO
    TITLE "3:cjc152_2336"
    INDEX 01 04:46:06
  TRACK 155 AUDIO
    TITLE "0:"
    INDEX 01 04:48:00
  TRACK 156 AUDIO
    TITLE "3:cjc152_2337"
    INDEX 01 04:48:64
  TRACK 157 AUDIO
    TITLE "0:"
    INDEX 01 04:51:61
  TRACK 158 AUDIO
    TITLE "3:cjc152_2338"
    INDEX 01 04:53:54
  TRACK 159 AUDIO
    TITLE "0:"
    INDEX 01 04:56:52
  TRACK 160 AUDIO
    TITLE "3:cjc152_2339"
    INDEX 01 04:57:44
  TRACK 161 AUDIO
    TITLE "0:"
    INDEX 01 05:00:38
  TRACK 162 AUDIO
    TITLE "3:cjc152_2340"
    INDEX 01 05:02:39
  TRACK 163 AUDIO
    TITLE "0:"
    INDEX 01 05:04:49
  TRACK 164 AUDIO
    TITLE "3:cjc152_2341"
    INDEX 01 05:05:41
  TRACK 165 AUDIO
    TITLE "0:"
    INDEX 01 05:08:04
  TRACK 166 AUDIO
    TITLE "3:cjc152_2342"
    INDEX 01 05:09:72
  TRACK 167 AUDIO
    TITLE "0:"
    INDEX 01 05:11:63
  TRACK 168 AUDIO
    TITLE "3:cjc152_2343"
    INDEX 01 05:12:57
  TRACK 169 AUDIO
    TITLE "0:"
    INDEX 01 05:15:08
  TRACK 170 AUDIO
    TITLE "3:cjc152_2344"
    INDEX 01 05:17:01
  TRACK 171 AUDIO
    TITLE "0:"
    INDEX 01 05:20:41
  TRACK 172 AUDIO
    TITLE "3:cjc152_2345"
    INDEX 01 05:21:36
  TRACK 173 AUDIO
    TITLE "0:"
    INDEX 01 05:25:30
  TRACK 174 AUDIO
    TITLE "3:cjc152_2346"
    INDEX 01 05:27:23
  TRACK 175 AUDIO
    TITLE "0:"
    INDEX 01 05:29:00
  TRACK 176 AUDIO
    TITLE "3:cjc152_2347"
    INDEX 01 05:29:67
  TRACK 177 AUDIO
    TITLE "0:"
    INDEX 01 05:31:48
  TRACK 178 AUDIO
    TITLE "3:cjc152_2348"
    INDEX 01 05:33:41
  TRACK 179 AUDIO
    TITLE "0:"
    INDEX 01 05:35:42
  TRACK 180 AUDIO
    TITLE "3:cjc152_2349"
    INDEX 01 05:36:36
  TRACK 181 AUDIO
    TITLE "0:"
    INDEX 01 05:38:37
  TRACK 182 AUDIO
    TITLE "3:cjc152_2350"
    INDEX 01 05:40:28
  TRACK 183 AUDIO
    TITLE "0:"
    INDEX 01 05:42:03
  TRACK 184 AUDIO
    TITLE "3:cjc152_2351"
    INDEX 01 05:42:72
  TRACK 185 AUDIO
    TITLE "0:"
    INDEX 01 05:44:45
  TRACK 186 AUDIO
    TITLE "3:cjc152_2352"
    INDEX 01 05:46:38
  TRACK 187 AUDIO
    TITLE "0:"
    INDEX 01 05:48:47
  TRACK 188 AUDIO
    TITLE "3:cjc152_2353"
    INDEX 01 05:49:38
  TRACK 189 AUDIO
    TITLE "0:"
    INDEX 01 05:51:69
  TRACK 190 AUDIO
    TITLE "3:cjc152_2354"
    INDEX 01 05:53:62
  TRACK 191 AUDIO
    TITLE "0:"
    INDEX 01 05:55:74
  TRACK 192 AUDIO
    TITLE "3:cjc152_2355"
    INDEX 01 05:56:68
  TRACK 193 AUDIO
    TITLE "0:"
    INDEX 01 05:58:35
  TRACK 194 AUDIO
    TITLE "3:cjc152_2356"
    INDEX 01 06:00:30
  TRACK 195 AUDIO
    TITLE "0:"
    INDEX 01 06:01:65
  TRACK 196 AUDIO
    TITLE "3:cjc152_2357"
    INDEX 01 06:02:61
  TRACK 197 AUDIO
    TITLE "0:"
    INDEX 01 06:04:67
  TRACK 198 AUDIO
    TITLE "3:cjc152_2358"
    INDEX 01 06:06:58
  TRACK 199 AUDIO
    TITLE "0:"
    INDEX 01 06:10:07
  TRACK 200 AUDIO
    TITLE "3:cjc152_2359"
    INDEX 01 06:10:74
  TRACK 201 AUDIO
    TITLE "0:"
    INDEX 01 06:14:44
  TRACK 202 AUDIO
    TITLE "3:cjc152_2360"
    INDEX 01 06:16:37
  TRACK 203 AUDIO
    TITLE "0:"
    INDEX 01 06:18:26
  TRACK 204 AUDIO
    TITLE "3:cjc152_2361"
    INDEX 01 06:19:20
  TRACK 205 AUDIO
    TITLE "0:"
    INDEX 01 06:20:64
  TRACK 206 AUDIO
    TITLE "3:cjc152_2362"
    INDEX 01 06:22:57
  TRACK 207 AUDIO
    TITLE "0:"
    INDEX 01 06:24:17
  TRACK 208 AUDIO
    TITLE "3:cjc152_2363"
    INDEX 01 06:25:11
  TRACK 209 AUDIO
    TITLE "0:"
    INDEX 01 06:27:43
  TRACK 210 AUDIO
    TITLE "3:cjc152_2364"
    INDEX 01 06:29:34
  TRACK 211 AUDIO
    TITLE "0:"
    INDEX 01 06:30:67
  TRACK 212 AUDIO
    TITLE "3:cjc152_2365"
    INDEX 01 06:31:58
  TRACK 213 AUDIO
    TITLE "0:"
    INDEX 01 06:33:42
  TRACK 214 AUDIO
    TITLE "3:cjc152_2366"
    INDEX 01 06:35:33
  TRACK 215 AUDIO
    TITLE "0:"
    INDEX 01 06:37:00
  TRACK 216 AUDIO
    TITLE "3:cjc152_2367"
    INDEX 01 06:37:71
  TRACK 217 AUDIO
    TITLE "0:"
    INDEX 01 06:39:36
